<svg xmlns="http://www.w3.org/2000/svg" viewBox="0 0 512 512">
  <defs>
    <linearGradient id="bg" x1="0" y1="0" x2="1" y2="1">
      <stop offset="0%" stop-color="#FFF5E6"/>
      <stop offset="100%" stop-color="#FFE0B2"/>
    </linearGradient>
  </defs>

  <!-- Rounded square background -->
  <rect x="16" y="16" width="480" height="480" rx="100" ry="100" fill="url(#bg)"/>
  <rect x="16" y="16" width="480" height="480" rx="100" ry="100" fill="none" stroke="#F0C88A" stroke-width="3"/>

  <!-- Milk tea icon scaled and centered -->
  <g transform="translate(69, 64) scale(0.371)">
    <!-- Cup body white -->
    <path d="M224 400h544l-59.2 553.6c-3.2 40-36.8 70.4-76.8 70.4h-272c-40 0-73.6-30.4-76.8-70.4L224 400z" fill="#FFFFFF"/>
    <!-- Cup body outline -->
    <path d="M224 400h544l-3.2 24-56 529.6c-3.2 40-36.8 70.4-76.8 70.4h-272c-40 0-73.6-30.4-76.8-70.4l-56-529.6L224 400z m460.8 552l56-528H251.2l56 528c0 3.2 1.6 8 1.6 11.2 1.6 3.2 1.6 4.8 3.2 8s3.2 4.8 4.8 8c1.6 3.2 4.8 4.8 6.4 8 3.2 1.6 4.8 4.8 8 6.4 3.2 1.6 4.8 3.2 8 3.2 3.2 1.6 4.8 1.6 8 3.2 3.2 0 8 1.6 11.2 1.6h270.4c3.2 0 8 0 11.2-1.6 3.2 0 4.8-1.6 8-3.2s4.8-3.2 8-3.2c3.2-1.6 6.4-3.2 8-6.4 3.2-1.6 4.8-4.8 6.4-8 1.6-1.6 3.2-4.8 4.8-8 1.6-3.2 3.2-4.8 3.2-8 6.4-3.2 6.4-8 6.4-11.2z" fill="#5D4037"/>
    <!-- Milk tea fill -->
    <path d="M376 976h241.6c24 0 43.2-17.6 46.4-41.6l22.4-224 12.8-132.8 4.8-65.6H288l6.4 65.6 12.8 132.8 22.4 224c3.2 24 22.4 41.6 46.4 41.6z" fill="#FEDAA6"/>
    <!-- Lid top -->
    <path d="M726.4 291.2V320H281.6v-28.8-6.4c0-1.6 1.6-3.2 1.6-4.8 0-1.6 1.6-3.2 1.6-4.8 1.6-1.6 1.6-3.2 3.2-4.8 1.6-1.6 3.2-3.2 4.8-3.2 1.6-1.6 3.2-1.6 4.8-1.6 1.6 0 3.2-1.6 4.8-1.6H705.6c1.6 0 3.2 1.6 4.8 1.6 1.6 0 3.2 1.6 4.8 1.6 1.6 1.6 3.2 1.6 4.8 3.2 1.6 1.6 3.2 3.2 3.2 4.8 1.6 1.6 1.6 3.2 1.6 4.8 0 1.6 1.6 3.2 1.6 4.8v6.4z" fill="#FFFFFF"/>
    <!-- Lid rim -->
    <path d="M764.8 318.4c28.8 0 51.2 24 51.2 51.2 0 27.2-24 51.2-51.2 51.2H243.2c-28.8 0-51.2-24-51.2-51.2 0-27.2 24-51.2 51.2-51.2h521.6z m0 24h-528c-1.6 0-3.2 1.6-4.8 1.6-1.6 0-3.2 1.6-4.8 1.6-1.6 1.6-3.2 1.6-4.8 3.2-1.6 1.6-3.2 3.2-3.2 4.8-1.6 1.6-1.6 3.2-1.6 4.8 0 1.6-1.6 3.2-1.6 4.8v12.8c0 1.6 1.6 3.2 1.6 4.8 0 1.6 1.6 3.2 1.6 4.8 1.6 1.6 1.6 3.2 3.2 4.8 1.6 1.6 3.2 3.2 4.8 3.2 1.6 1.6 3.2 1.6 4.8 1.6 1.6 0 3.2 1.6 4.8 1.6h532.8c1.6 0 3.2-1.6 4.8-1.6 1.6 0 3.2-1.6 4.8-1.6 1.6-1.6 3.2-1.6 4.8-3.2 1.6-1.6 3.2-3.2 3.2-4.8 1.6-1.6 1.6-3.2 1.6-4.8 0-1.6 1.6-3.2 1.6-4.8v-6.4-6.4c0-1.6-1.6-3.2-1.6-4.8 0-1.6-1.6-3.2-1.6-4.8-1.6-1.6-1.6-3.2-3.2-4.8-1.6-1.6-3.2-3.2-4.8-3.2-1.6-1.6-3.2-1.6-4.8-1.6-1.6 0-3.2-1.6-4.8-1.6h-4.8z" fill="#5D4037"/>
    <!-- Lid band -->
    <path d="M699.2 240c28.8 0 51.2 24 51.2 51.2v51.2H257.6v-51.2c0-28.8 24-51.2 51.2-51.2h390.4z" fill="#5D4037"/>
    <!-- Straw -->
    <path d="M707.2 86.4l-137.6 36.8-32 134.4h-83.2l6.4-24 33.6-144c3.2-16 16-30.4 33.6-35.2L689.6 11.2c17.6-4.8 36.8 4.8 44.8 20.8 8 24-4.8 48-27.2 54.4z" fill="#5D4037"/>
    <!-- Straw color -->
    <path d="M548.8 104l-32 129.6h-35.2l32-137.6c0-1.6 1.6-3.2 1.6-6.4 1.6-1.6 1.6-3.2 3.2-4.8 1.6-1.6 3.2-3.2 4.8-3.2 3.2-1.6 4.8-3.2 8-3.2l161.6-43.2h4.8c1.6 0 3.2 0 4.8 1.6 1.6 0 3.2 1.6 4.8 3.2 1.6 1.6 1.6 3.2 3.2 4.8 0 1.6 1.6 3.2 1.6 4.8V54.4c0 1.6 0 3.2-1.6 3.2 0 1.6-1.6 1.6-1.6 3.2l-1.6 1.6-1.6 1.6c-1.6-1.6-3.2 0-4.8 0l-152 40z" fill="#64B5F6"/>
    <!-- Boba pearls -->
    <circle cx="374.4" cy="771.2" r="38.4" fill="#8D6E63"/>
    <circle cx="505.6" cy="798.4" r="38.4" fill="#8D6E63"/>
    <circle cx="609.6" cy="758.4" r="38.4" fill="#8D6E63"/>
    <circle cx="569.6" cy="889.6" r="38.4" fill="#8D6E63"/>
    <circle cx="427.2" cy="889.6" r="38.4" fill="#8D6E63"/>
  </g>
</svg>
